# xmcd CD database file
#
# Track frame offsets:
#	150
#	13867
#	27275
#	39895
#	54810
#	69307
#	81872
#	94987
#	107505
#	121282
#	134822
#	147742
#	160917
#	172240
#	186567
#	199380
#	213495
#	227890
#
# Disc length: 3216 seconds
#
# Revision: 0
# Processed by: cddbd v1.5.2PL0 Copyright (c) Steve Scherf et al.
# Submitted via: Feurio! 1.68 - http://www.feurio.com
#
DISCID=0e0c8e12
DTITLE=Tampa Red - Slide Guitar Wizard - CD2
DYEAR=1900
DGENRE=blues
TTITLE0=Seminole Blues
TTITLE1=Love Her With A Feeling
TTITLE2=Forgive Me Please
TTITLE3=Blues For My Baby
TTITLE4=Hellish Old Feeling
TTITLE5=She Got The Best In Town
TTITLE6=You Say It's Love
TTITLE7=Bessemer Blues
TTITLE8=Sad Letter Blues
TTITLE9=Sweet Mellow Woman Blues
TTITLE10=Anna Lou Blues
TTITLE11=Don't You Lie To Me
TTITLE12=It Hurts Me Too
TTITLE13=Noonday Hour Blues
TTITLE14=Don't Deal With The Devil
TTITLE15=Lula Mae
TTITLE16=Crying Won't Help You
TTITLE17=Poor Stranger Blues
EXTD=
EXTT0=1937
EXTT1=1938
EXTT2=1938
EXTT3=1938
EXTT4=1938
EXTT5=1938
EXTT6=1939
EXTT7=1939
EXTT8=1939
EXTT9=1939
EXTT10=1940
EXTT11=1940
EXTT12=1940
EXTT13=1940
EXTT14=1941
EXTT15=1944
EXTT16=1946
EXTT17=1946
PLAYORDER=
